<?xml version="1.0" encoding="utf-8"?>
<!-- Generator: Adobe Illustrator 25.0.1, SVG Export Plug-In . SVG Version: 6.00 Build 0)  -->
<svg version="1.0" id="Layer_1" xmlns="http://www.w3.org/2000/svg" xmlns:xlink="http://www.w3.org/1999/xlink" x="0px" y="0px"
	 viewBox="0 0 231.2 84" enable-background="new 0 0 231.2 84" xml:space="preserve">
<path fill="#FFFFFF" d="M33,53.6L46.5,41H52c6.6,0,12-5.4,12-12v-6c0-1.1-0.9-2-2-2h-6c-6.6,0-12,5.4-12,12v4.9l-10.5,9.8
	c0.4-5.1,0.5-10.5,0.5-16.9l2.2-2.2c7-6.8,7.1-17.9,0.3-24.9c-0.1-0.1-0.2-0.2-0.3-0.3l-2.8-2.8c-0.7-0.8-1.9-0.8-2.7-0.1l-0.1,0.1
	l-2.8,2.8c-7,6.8-7.1,17.9-0.3,24.9c0.1,0.1,0.2,0.2,0.3,0.3l2.2,2.2c-0.1,5.7-0.3,11.8-0.4,14.9L20,36.2V31c0-6.6-5.4-12-12-12H2
	c-1.1,0-2,0.9-2,2v6c0,6.6,5.4,12,12,12h5.2l12,12c-0.4,5.7-1.2,11.3-2.5,16.9L20,61.2V56c0-6.6-5.4-12-12-12H2c-1.1,0-2,0.9-2,2v6
	c0,6.6,5.4,12,12,12h5.2l8.3,8.3c-1.7,5.1-3.5,7.2-4.7,8.1c-0.9,0.7-1.1,1.9-0.4,2.8l0,0c0.4,0.5,1,0.8,1.6,0.8
	c0.4,0,0.9-0.1,1.2-0.4c2.7-2,4.8-5.8,6.5-11.2l11.2-5.2l5.7,1.4c0.9,0.3,1.9,0.4,2.9,0.4c5.5,0,10.3-3.7,11.7-9l1.5-6.2
	c0.2-1.1-0.4-2.2-1.5-2.4l0,0l-6.1-1.5c-6.4-1.6-12.8,2.2-14.5,8.6v0.1l-1.3,4.9L31,67.4C32,62.9,32.7,58.2,33,53.6z"/>
<g>
	<path fill="#FFFFFF" d="M93.7,35.5h-3.3L77.2,15.5v20.1h-3.3V10.2h3.3l13.2,20.1V10.2h3.3V35.5z"/>
	<path fill="#FFFFFF" d="M111.5,16.8c1.5,0.8,2.7,2,3.5,3.5c0.9,1.5,1.3,3.3,1.3,5.4s-0.4,3.9-1.3,5.4c-0.9,1.5-2,2.7-3.5,3.5
		c-1.5,0.8-3.2,1.2-5.1,1.2s-3.6-0.4-5.1-1.2c-1.5-0.8-2.7-2-3.5-3.5c-0.9-1.5-1.3-3.3-1.3-5.4s0.4-3.9,1.3-5.4
		c0.9-1.5,2-2.7,3.5-3.5c1.5-0.8,3.2-1.2,5.1-1.2S110,15.9,111.5,16.8z M103.2,19.2c-1,0.5-1.8,1.3-2.4,2.4
		c-0.6,1.1-0.9,2.4-0.9,4.1c0,1.6,0.3,2.9,0.9,4c0.6,1.1,1.4,1.9,2.4,2.4c1,0.5,2.1,0.8,3.3,0.8s2.3-0.3,3.3-0.8
		c1-0.5,1.8-1.3,2.4-2.4c0.6-1.1,0.9-2.4,0.9-4c0-1.6-0.3-3-0.9-4.1c-0.6-1.1-1.4-1.9-2.4-2.4c-1-0.5-2.1-0.8-3.3-0.8
		S104.2,18.7,103.2,19.2z"/>
	<path fill="#FFFFFF" d="M127.9,32.7v2.9h-2.4c-2,0-3.5-0.5-4.5-1.4c-1-1-1.5-2.6-1.5-4.8V18.6h-3v-2.8h3v-4.9h3.3v4.9h5.1v2.8h-5.1
		v10.7c0,1.3,0.2,2.1,0.7,2.6c0.5,0.5,1.3,0.7,2.4,0.7H127.9z"/>
	<path fill="#FFFFFF" d="M152.3,10.2v2.7h-11.1v8.8h9.4v2.6h-9.4v11.4h-3.3V10.2H152.3z"/>
	<path fill="#FFFFFF" d="M166.8,17c1.3,1,2.3,2.2,2.8,3.9v-5h3.3v19.8h-3.3v-5c-0.5,1.6-1.5,2.9-2.8,3.9c-1.3,1-3,1.4-4.9,1.4
		c-1.8,0-3.3-0.4-4.7-1.2c-1.4-0.8-2.4-2-3.2-3.5c-0.8-1.5-1.2-3.3-1.2-5.4s0.4-3.9,1.2-5.4c0.8-1.5,1.9-2.7,3.2-3.5
		c1.4-0.8,2.9-1.2,4.7-1.2C163.8,15.5,165.5,16,166.8,17z M158,20.4c-1.2,1.3-1.8,3.1-1.8,5.3s0.6,4,1.8,5.3
		c1.2,1.3,2.8,1.9,4.8,1.9c1.3,0,2.5-0.3,3.5-0.9c1-0.6,1.8-1.4,2.4-2.5c0.6-1.1,0.9-2.4,0.9-3.8c0-1.4-0.3-2.7-0.9-3.8
		c-0.6-1.1-1.4-1.9-2.4-2.5c-1-0.6-2.2-0.9-3.5-0.9C160.8,18.4,159.2,19.1,158,20.4z"/>
	<path fill="#FFFFFF" d="M182.6,16.6c1.2-0.8,2.7-1.1,4.5-1.1V19h-1c-1.8,0-3.4,0.5-4.5,1.4c-1.2,0.9-1.8,2.5-1.8,4.7v10.4h-3.3
		V15.8h3.3v4C180.4,18.4,181.3,17.3,182.6,16.6z"/>
	<path fill="#FFFFFF" d="M88.3,43.4V46H77.2v8.8h9.4v2.6h-9.4v11.4h-3.3V43.4H88.3z"/>
	<path fill="#FFFFFF" d="M95.4,49.8c1.2-0.8,2.7-1.1,4.5-1.1v3.6h-1c-1.8,0-3.4,0.5-4.5,1.4c-1.2,0.9-1.8,2.5-1.8,4.7v10.4h-3.3V49
		h3.3v4C93.2,51.6,94.2,50.5,95.4,49.8z"/>
	<path fill="#FFFFFF" d="M115.2,50c1.5,0.8,2.7,2,3.5,3.5c0.9,1.5,1.3,3.3,1.3,5.4c0,2.1-0.4,3.9-1.3,5.4c-0.9,1.5-2,2.7-3.5,3.5
		S112,69,110.1,69s-3.6-0.4-5.1-1.2s-2.7-2-3.5-3.5s-1.3-3.3-1.3-5.4c0-2.1,0.4-3.9,1.3-5.4c0.9-1.5,2-2.7,3.5-3.5
		c1.5-0.8,3.2-1.2,5.1-1.2S113.7,49.1,115.2,50z M106.8,52.4c-1,0.5-1.8,1.3-2.4,2.4s-0.9,2.4-0.9,4c0,1.6,0.3,2.9,0.9,4
		s1.4,1.9,2.4,2.4s2.1,0.8,3.3,0.8s2.3-0.3,3.3-0.8s1.8-1.3,2.4-2.4c0.6-1.1,0.9-2.4,0.9-4c0-1.6-0.3-3-0.9-4
		c-0.6-1.1-1.4-1.9-2.4-2.4c-1-0.5-2.1-0.8-3.3-0.8S107.8,51.9,106.8,52.4z"/>
	<path fill="#FFFFFF" d="M152.4,50.9c1.4,1.5,2.1,3.6,2.1,6.4v11.5h-3.3V57.5c0-1.9-0.5-3.4-1.4-4.5c-0.9-1-2.2-1.5-3.9-1.5
		c-1.7,0-3.1,0.6-4.2,1.7s-1.6,2.8-1.6,5v10.5h-3.3V57.5c0-1.9-0.5-3.4-1.4-4.5s-2.3-1.5-3.9-1.5c-1.8,0-3.2,0.6-4.2,1.7
		s-1.6,2.8-1.6,5v10.5h-3.3V49h3.3v4.5c0.5-1.6,1.3-2.8,2.6-3.6s2.7-1.2,4.3-1.2c1.7,0,3.1,0.4,4.4,1.3c1.2,0.9,2.1,2.1,2.6,3.8
		c0.6-1.6,1.5-2.8,2.8-3.7c1.3-0.9,2.8-1.3,4.4-1.3C149.2,48.7,151,49.4,152.4,50.9z"/>
	<path fill="#FFFFFF" d="M181.2,43.4V46H174v22.7h-3.3V46h-7.2v-2.7H181.2z"/>
	<path fill="#FFFFFF" d="M186.5,49.8c1.2-0.8,2.7-1.1,4.5-1.1v3.6h-1c-1.8,0-3.4,0.5-4.5,1.4c-1.2,0.9-1.8,2.5-1.8,4.7v10.4h-3.3V49
		h3.3v4C184.3,51.6,185.3,50.5,186.5,49.8z"/>
	<path fill="#FFFFFF" d="M210.3,59.6h-15.8c0.1,2.3,0.7,3.9,1.9,5.1c1.2,1.1,2.7,1.7,4.4,1.7c1.6,0,2.9-0.4,4-1.2
		c1.1-0.8,1.7-1.9,2-3.2h3.5c-0.2,1.4-0.8,2.6-1.6,3.7c-0.8,1.1-1.9,1.9-3.2,2.5c-1.3,0.6-2.8,0.9-4.5,0.9c-1.9,0-3.6-0.4-5-1.2
		s-2.6-2-3.4-3.5c-0.8-1.5-1.2-3.3-1.2-5.4c0-2.1,0.4-3.9,1.2-5.4c0.8-1.5,2-2.7,3.4-3.5c1.5-0.8,3.1-1.2,5-1.2c1.9,0,3.6,0.4,5,1.2
		c1.4,0.8,2.5,1.9,3.3,3.3c0.8,1.4,1.1,2.9,1.1,4.5C210.4,58.5,210.4,59.1,210.3,59.6z M206.4,54.3c-0.6-1-1.3-1.7-2.3-2.2
		c-1-0.5-2-0.7-3.1-0.7c-1.8,0-3.3,0.6-4.5,1.7c-1.2,1.1-1.9,2.8-2,4.9h12.6C207.2,56.5,206.9,55.3,206.4,54.3z"/>
	<path fill="#FFFFFF" d="M231.1,59.6h-15.8c0.1,2.3,0.7,3.9,1.9,5.1c1.2,1.1,2.7,1.7,4.4,1.7c1.6,0,2.9-0.4,4-1.2
		c1.1-0.8,1.7-1.9,2-3.2h3.5c-0.2,1.4-0.8,2.6-1.6,3.7c-0.8,1.1-1.9,1.9-3.2,2.5c-1.3,0.6-2.8,0.9-4.5,0.9c-1.9,0-3.6-0.4-5-1.2
		s-2.6-2-3.4-3.5c-0.8-1.5-1.2-3.3-1.2-5.4c0-2.1,0.4-3.9,1.2-5.4c0.8-1.5,2-2.7,3.4-3.5c1.5-0.8,3.1-1.2,5-1.2c1.9,0,3.6,0.4,5,1.2
		c1.4,0.8,2.5,1.9,3.3,3.3c0.8,1.4,1.1,2.9,1.1,4.5C231.2,58.5,231.2,59.1,231.1,59.6z M227.2,54.3c-0.6-1-1.3-1.7-2.3-2.2
		c-1-0.5-2-0.7-3.1-0.7c-1.8,0-3.3,0.6-4.5,1.7c-1.2,1.1-1.9,2.8-2,4.9h12.6C228,56.5,227.8,55.3,227.2,54.3z"/>
</g>
</svg>
